<svg xmlns="http://www.w3.org/2000/svg" width="134.372" height="40" viewBox="0 0 134.372 40"><defs><style>.a{fill:#7a35ff;}.b{fill:#fff;}</style></defs><g transform="translate(48.752 1.914)"><path class="a" d="M521.594,235.342a1.052,1.052,0,0,1,1.353-.238l2.548,1.474a1.041,1.041,0,0,1,.318,1.553,10.578,10.578,0,0,1-8.362,3.9,10.572,10.572,0,1,1,0-21.142,10.58,10.58,0,0,1,8.362,3.9,1.091,1.091,0,0,1-.318,1.594l-2.548,1.433a1.05,1.05,0,0,1-1.353-.238,5.274,5.274,0,0,0-4.141-1.833,5.738,5.738,0,0,0,0,11.466A5.175,5.175,0,0,0,521.594,235.342Z" transform="translate(-506.78 -213.008)"/><path class="a" d="M675.243,167.93h2.229a1.419,1.419,0,0,1,1.393,1.434v25a1.419,1.419,0,0,1-1.393,1.433h-2.229a1.428,1.428,0,0,1-1.433-1.433v-25A1.428,1.428,0,0,1,675.243,167.93Z" transform="translate(-651.08 -167.255)"/><path class="a" d="M744.87,165.678a2.688,2.688,0,1,1,2.669,2.707A2.7,2.7,0,0,1,744.87,165.678Z" transform="translate(-712.47 -162.97)"/><path class="a" d="M746.05,243.154V225.833a1.426,1.426,0,0,1,1.433-1.433h2.191a1.426,1.426,0,0,1,1.433,1.433v17.321a1.427,1.427,0,0,1-1.433,1.433h-2.191A1.427,1.427,0,0,1,746.05,243.154Z" transform="translate(-713.489 -216.04)"/><path class="a" d="M836.6,229.3v10.831a1.429,1.429,0,0,1-1.434,1.433h-2.188a1.429,1.429,0,0,1-1.434-1.433v-9.794c0-2.588-1.075-4.54-3.94-4.54-2.987,0-4.3,2.191-4.3,4.54v9.794a1.419,1.419,0,0,1-1.392,1.433h-2.232a1.42,1.42,0,0,1-1.392-1.433V222.809a1.418,1.418,0,0,1,1.392-1.433h2.232a1.418,1.418,0,0,1,1.392,1.433v1.037A6.713,6.713,0,0,1,829.2,220.9C834.294,220.9,836.6,225,836.6,229.3Z" transform="translate(-775.898 -213.017)"/><path class="a" d="M996.838,221.378h2.191a1.426,1.426,0,0,1,1.433,1.433v17.321a1.427,1.427,0,0,1-1.433,1.433h-2.191a1.428,1.428,0,0,1-1.433-1.433v-.957a7.613,7.613,0,0,1-6.452,2.867c-6.25,0-9.833-5.3-9.833-10.551,0-5.3,3.582-10.591,9.833-10.591a7.613,7.613,0,0,1,6.452,2.867v-.957A1.427,1.427,0,0,1,996.838,221.378Zm-1.632,10.112c0-3.145-1.991-5.735-5.456-5.735s-5.454,2.628-5.454,5.735c0,3.066,1.991,5.732,5.454,5.732S995.206,234.6,995.206,231.49Z" transform="translate(-914.842 -213.017)"/></g><g transform="translate(0 0)"><path class="a" d="M148.53,161.6v14.614a5.384,5.384,0,0,0,2.693,4.664l12.657,7.308a5.384,5.384,0,0,0,5.385,0l12.657-7.308a5.386,5.386,0,0,0,2.693-4.664V161.6a5.384,5.384,0,0,0-2.693-4.664l-12.657-7.308a5.384,5.384,0,0,0-5.385,0l-12.657,7.308A5.382,5.382,0,0,0,148.53,161.6Z" transform="translate(-148.53 -148.907)"/><g transform="translate(7.565 9.619)"><path class="b" d="M218.663,233.782a1.036,1.036,0,0,1,1.33-.234l2.5,1.447a1.021,1.021,0,0,1,.313,1.524,10.388,10.388,0,0,1-8.211,3.831,10.38,10.38,0,1,1,0-20.76,10.388,10.388,0,0,1,8.211,3.831,1.072,1.072,0,0,1-.313,1.565l-2.5,1.407a1.033,1.033,0,0,1-1.33-.234,5.182,5.182,0,0,0-4.066-1.8,5.635,5.635,0,0,0,0,11.26A5.079,5.079,0,0,0,218.663,233.782Z" transform="translate(-204.12 -219.59)"/><path class="b" d="M261.72,278.99a2.639,2.639,0,1,1,2.62,2.658A2.655,2.655,0,0,1,261.72,278.99Z" transform="translate(-253.882 -268.609)"/></g></g></svg>