<?xml version="1.0" encoding="utf-8"?>
<!-- Generator: Adobe Illustrator 25.2.1, SVG Export Plug-In . SVG Version: 6.00 Build 0)  -->
<svg version="1.1" id="Capa_1" xmlns="http://www.w3.org/2000/svg" xmlns:xlink="http://www.w3.org/1999/xlink" x="0px" y="0px"
	 viewBox="0 0 60 60" style="enable-background:new 0 0 60 60;" xml:space="preserve">
<style type="text/css">
	.st0{fill:#7F3CFF;}
</style>
<g>
	<path class="st0" d="M59.5,42.1C59.1,38,56,35,52.2,35c-2.4,0-4.4,1.4-5.7,3.2c-1.3-1.8-3.3-3.2-5.7-3.2c-3.8,0-6.9,3-7.3,7.1
		c0,0.3-0.1,1.2,0.2,2.7c0.5,2.2,1.8,4.2,3.6,5.8l9.1,7.8l9.1-7.8c1.8-1.6,3.1-3.6,3.6-5.8C59.6,43.3,59.5,42.3,59.5,42.1z
		 M57.3,44.3c-0.4,1.8-1.5,3.4-3,4.7l-7.8,6.7L38.7,49c-1.5-1.3-2.5-2.9-3-4.7c-0.3-1.2-0.2-1.9-0.2-1.9l0-0.1
		c0.2-2.6,2.1-5.3,5.3-5.3c2.2,0,4,1.8,4.8,3.6l0.9,2.1l0.9-2.1c0.8-1.8,2.6-3.6,4.8-3.6c3.1,0,5,2.7,5.3,5.4
		C57.5,42.4,57.6,43.1,57.3,44.3z"/>
	<path class="st0" d="M31.8,48H11.5c-0.6,0-1-0.4-1-1s0.4-1,1-1H31c0-0.2-0.1-0.3-0.2-0.5c-0.5-1.9-0.4-3.2-0.3-3.8
		c0.1-0.6,0.2-1.1,0.3-1.7H11.5c-0.6,0-1-0.4-1-1s0.4-1,1-1h20.1c1.7-3.6,5.2-6,9.2-6c2,0,4,0.7,5.7,1.9c0.3-0.2,0.7-0.5,1-0.6V14.6
		L32.9,0H0.5v60h43.4l-8.4-7.2C33.9,51.4,32.6,49.8,31.8,48z M33.5,4l10,10h-10V4z M11.5,14h10c0.6,0,1,0.4,1,1s-0.4,1-1,1h-10
		c-0.6,0-1-0.4-1-1S10.9,14,11.5,14z M11.5,22h25c0.6,0,1,0.4,1,1s-0.4,1-1,1h-25c-0.6,0-1-0.4-1-1S10.9,22,11.5,22z M11.5,30h25
		c0.6,0,1,0.4,1,1s-0.4,1-1,1h-25c-0.6,0-1-0.4-1-1S10.9,30,11.5,30z"/>
</g>
</svg>
